<svg xmlns="http://www.w3.org/2000/svg" version="1.1" xmlns:xlink="http://www.w3.org/1999/xlink" xmlns:svgjs="http://svgjs.com/svgjs" width="512" height="512" x="0" y="0" viewBox="0 0 512 512" style="enable-background:new 0 0 512 512" xml:space="preserve" class=""><circle r="256" cx="256" cy="256" fill="#5b628f" shape="circle"></circle><g transform="matrix(0.7,0,0,0.7,76.80000000000001,76.80000000000001)"><path d="m188.386719 235.820312v58.144532l-.320313.175781-67.339844-36.820313c-.289062-.160156-.46875-.460937-.46875-.789062l.976563-57.964844zm0 0" fill="#ffffff" data-original="#f7d33c" class=""></path><path d="m324.285156 294.164062v57.027344c0 .90625-.496094 1.738282-1.292968 2.175782l-66.835938 36.539062v-58.5zm0 0" fill="#ffffff" data-original="#e21000" class=""></path><path d="m256.15625 389.761719v.144531l-66.839844-36.539062c-.796875-.4375-1.289062-1.269532-1.289062-2.175782l.039062-57.050781 68.089844 37.265625zm0 0" fill="#ffffff" data-original="#ef3e2b" class=""></path><path d="m392.425781 198.566406.347657 57.617188c0 .542968-.292969 1.042968-.769532 1.300781l-67.71875 36.679687.359375-58.34375zm0 0" fill="#ffffff" data-original="#e27100" class=""></path><path d="m324.285156 294.164062-67.808594-37.082031.019532-58.550781 68.148437 37.289062zm0 0" fill="#ffffff" data-original="#e58a1f" class=""></path><path d="m256.515625 198.566406-.039063 58.515625-68.410156 37.058594.320313-58.320313zm0 0" fill="#ffffff" data-original="#efc100" class=""></path><path d="m324.644531 235.820312-68.128906-37.253906 67.742187-37.035156c.242188-.128906.53125-.128906.777344 0l67.226563 36.753906c.222656.121094.222656.4375 0 .558594zm0 0" fill="#5b628f" data-original="#ea9f3b" class=""></path><path d="m188.386719 235.820312-66.6875-36.464843c-.621094-.34375-.621094-1.238281 0-1.578125l66.039062-36.101563c.402344-.21875.894531-.21875 1.296875 0l67.480469 36.890625zm0 0" fill="#5b628f" data-original="#fee063" class=""></path><path d="m256.15625 331.40625-68.089844-37.265625 68.410156-37.058594 67.808594 37.082031zm0 0" fill="#5b628f" data-original="#fe6c56" class=""></path><g fill="#87e5e8"><path d="m298.109375 472.214844c-3.613281 0-6.84375-2.539063-7.582031-6.214844-.839844-4.195312 1.875-8.273438 6.066406-9.117188 39.203125-7.878906 75.03125-27.007812 103.605469-55.320312 28.554687-28.292969 48.015625-63.917969 56.269531-103.019531.882812-4.183594 4.988281-6.859375 9.175781-5.976563 4.183594.882813 6.859375 4.992188 5.972657 9.175782-8.878907 42.070312-29.808594 80.390624-60.519532 110.820312-30.730468 30.449219-69.269531 51.023438-111.453125 59.5-.515625.105469-1.027343.152344-1.535156.152344zm0 0" fill="#ffffff" data-original="#87e5e8" class=""></path><path d="m211.867188 471.789062c-.53125 0-1.070313-.054687-1.609376-.171874-42.070312-8.878907-80.390624-29.808594-110.820312-60.519532-30.449219-30.730468-51.023438-69.269531-59.5-111.453125-.84375-4.191406 1.871094-8.273437 6.0625-9.117187 4.199219-.84375 8.273438 1.875 9.117188 6.066406 7.878906 39.207031 27.007812 75.03125 55.320312 103.605469 28.292969 28.554687 63.917969 48.015625 103.019531 56.269531 4.183594.882812 6.859375 4.992188 5.976563 9.175781-.769532 3.644531-3.988282 6.144531-7.566406 6.144531zm0 0" fill="#ffffff" data-original="#87e5e8" class=""></path><path d="m47.960938 219.601562c-.527344 0-1.066407-.054687-1.605469-.167968-4.183594-.882813-6.859375-4.992188-5.976563-9.175782 8.882813-42.070312 29.8125-80.386718 60.523438-110.816406 30.730468-30.449218 69.269531-51.023437 111.453125-59.5 4.195312-.84375 8.273437 1.875 9.117187 6.066406.839844 4.191407-1.875 8.273438-6.066406 9.113282-39.207031 7.878906-75.03125 27.007812-103.605469 55.320312-28.554687 28.289063-48.015625 63.914063-56.269531 103.015625-.769531 3.644531-3.988281 6.144531-7.570312 6.144531zm0 0" fill="#ffffff" data-original="#87e5e8" class=""></path><path d="m459.230469 219.480469c-3.613281 0-6.84375-2.539063-7.582031-6.21875-15.671876-77.976563-75.808594-140.28125-153.210938-158.722657-4.160156-.992187-6.730469-5.167968-5.738281-9.324218.992187-4.160156 5.167969-6.726563 9.324219-5.738282 83.257812 19.839844 147.945312 86.855469 164.804687 170.734376.839844 4.191406-1.875 8.273437-6.066406 9.117187-.515625.101563-1.027344.152344-1.53125.152344zm0 0" fill="#ffffff" data-original="#87e5e8" class=""></path></g><path d="m298.324219 468.644531c0 23.945313-19.414063 43.355469-43.355469 43.355469-23.945312 0-43.355469-19.410156-43.355469-43.355469 0-23.945312 19.410157-43.355469 43.355469-43.355469 23.941406 0 43.355469 19.410157 43.355469 43.355469zm0 0" fill="#ffffff" data-original="#75dbad" class=""></path><path d="m86.710938 254.96875c0 23.941406-19.410157 43.355469-43.355469 43.355469-23.945313 0-43.355469-19.414063-43.355469-43.355469 0-23.945312 19.410156-43.355469 43.355469-43.355469 23.945312 0 43.355469 19.410157 43.355469 43.355469zm0 0" fill="#ffffff" data-original="#75dbad" class=""></path><path d="m300.386719 43.355469c0 23.945312-19.410157 43.355469-43.355469 43.355469-23.941406 0-43.355469-19.410157-43.355469-43.355469 0-23.945313 19.414063-43.355469 43.355469-43.355469 23.945312 0 43.355469 19.410156 43.355469 43.355469zm0 0" fill="#ffffff" data-original="#75dbad" class=""></path><path d="m512 257.03125c0 23.945312-19.410156 43.355469-43.355469 43.355469-23.945312 0-43.355469-19.410157-43.355469-43.355469 0-23.941406 19.410157-43.355469 43.355469-43.355469 23.945313 0 43.355469 19.414063 43.355469 43.355469zm0 0" fill="#ffffff" data-original="#75dbad" class=""></path><path d="m253.933594 468.644531c0-16.261719 8.953125-30.417969 22.195312-37.835937-6.257812-3.511719-13.472656-5.519532-21.160156-5.519532-23.949219 0-43.355469 19.40625-43.355469 43.355469s19.40625 43.355469 43.355469 43.355469c7.6875 0 14.902344-2.007812 21.160156-5.515625-13.242187-7.417969-22.195312-21.578125-22.195312-37.839844zm0 0" fill="#ffffff" data-original="#15ce71" class=""></path><path d="m42.324219 254.96875c0-16.261719 8.949219-30.421875 22.191406-37.839844-6.257813-3.507812-13.472656-5.515625-21.160156-5.515625-23.949219 0-43.355469 19.40625-43.355469 43.355469s19.40625 43.355469 43.355469 43.355469c7.6875 0 14.902343-2.007813 21.160156-5.519531-13.242187-7.417969-22.191406-21.574219-22.191406-37.835938zm0 0" fill="#ffffff" data-original="#15ce71" class=""></path><path d="m256 43.355469c0-16.261719 8.953125-30.421875 22.195312-37.839844-6.261718-3.507813-13.476562-5.515625-21.164062-5.515625-23.949219 0-43.355469 19.40625-43.355469 43.355469s19.40625 43.355469 43.355469 43.355469c7.6875 0 14.902344-2.007813 21.164062-5.519532-13.242187-7.417968-22.195312-21.574218-22.195312-37.835937zm0 0" fill="#ffffff" data-original="#15ce71" class=""></path><path d="m467.613281 257.03125c0-16.261719 8.953125-30.417969 22.191407-37.835938-6.257813-3.511718-13.472657-5.519531-21.160157-5.519531-23.949219 0-43.355469 19.40625-43.355469 43.355469s19.40625 43.355469 43.355469 43.355469c7.6875 0 14.902344-2.007813 21.160157-5.515625-13.238282-7.417969-22.191407-21.578125-22.191407-37.839844zm0 0" fill="#ffffff" data-original="#15ce71" class=""></path></g></svg>