<svg xmlns="http://www.w3.org/2000/svg" version="1.1" xmlns:xlink="http://www.w3.org/1999/xlink" xmlns:svgjs="http://svgjs.com/svgjs" width="512" height="512" x="0" y="0" viewBox="0 0 512 512" style="enable-background:new 0 0 512 512" xml:space="preserve" class=""><g><g><path d="m406 196v-30c0-49.629-40.371-90-90-90h-30v-76h-30-30v76h-22.617c-53.701 0-97.383 43.682-97.383 97.383 0 44.78 30.337 83.628 73.77 94.482l46.23 11.56v96.575h-30c-16.538 0-30-13.462-30-30v-30h-60v30c0 49.629 40.371 90 90 90h30v76h30 30v-76h22.617c53.701 0 97.383-43.682 97.383-97.383 0-44.78-30.337-83.628-73.77-94.482l-46.23-11.56v-96.575h30c16.538 0 30 13.462 30 30v30zm-180 21.572-31.67-7.919c-16.685-4.16-28.33-19.072-28.33-36.27 0-20.61 16.772-37.383 37.383-37.383h22.617zm91.67 84.776c16.685 4.16 28.33 19.072 28.33 36.27 0 20.61-16.772 37.383-37.383 37.383h-22.617v-81.572z" fill="#fed843" data-original="#fed843"></path><path d="m308.617 436c53.701 0 97.383-43.682 97.383-97.383 0-44.78-30.337-83.628-73.77-94.482l-46.23-11.56v-96.575h30c16.538 0 30 13.462 30 30v30h60v-30c0-49.629-40.371-90-90-90h-30v-76h-30v512h30v-76zm-22.617-141.572 31.67 7.919c16.685 4.16 28.33 19.072 28.33 36.27 0 20.61-16.772 37.383-37.383 37.383h-22.617z" fill="#fabe2c" data-original="#fabe2c" class=""></path></g></g></svg>